<?xml version="1.0" encoding="utf-8"?>
<!-- Generator: Adobe Illustrator 27.9.0, SVG Export Plug-In . SVG Version: 6.00 Build 0)  -->
<svg version="1.1" id="Capa_1" xmlns="http://www.w3.org/2000/svg" xmlns:xlink="http://www.w3.org/1999/xlink" x="0px" y="0px"
	 viewBox="0 0 249 286" style="enable-background:new 0 0 249 286;" xml:space="preserve">
<style type="text/css">
	.st0{fill:#585A5C;}
</style>
<g id="_x30_2_Diet_plan_00000038403520952079004880000005795158418462648242_">
	<g>
		<g>
			<path class="st0" d="M106.86,23.04c0.83-0.83,1.03-1.94,0.34-3.32c-0.95-1.18-2.18-1.38-3.19-0.97
				c-1.95,0.97-1.97,3.16-0.84,4.28C104.15,24.01,105.82,24.08,106.86,23.04z"/>
			<path class="st0" d="M66.92,80.18c-10.63,0-19.29,8.65-19.29,19.29s8.65,19.29,19.29,19.29s19.29-8.65,19.29-19.29
				S77.55,80.18,66.92,80.18z M66.92,113.52c-7.75,0-14.06-6.31-14.06-14.06S59.17,85.4,66.92,85.4s14.06,6.31,14.06,14.06
				S74.67,113.52,66.92,113.52z"/>
			<path class="st0" d="M70.59,93.07l-5.8,7.25l-1.75-1.75c-1.02-1.02-2.67-1.02-3.69,0c-1.02,1.02-1.02,2.67,0,3.69l3.81,3.81
				c1.1,1.1,2.92,1,3.89-0.22l7.62-9.53c0.9-1.13,0.72-2.77-0.41-3.67C73.14,91.76,71.5,91.94,70.59,93.07L70.59,93.07z"/>
			<path class="st0" d="M159.8,85.78H98.38c-1.44,0-2.61,1.17-2.61,2.61c0,1.44,1.17,2.61,2.61,2.61h61.41
				c1.44,0,2.61-1.17,2.61-2.61C162.41,86.95,161.24,85.78,159.8,85.78z"/>
			<path class="st0" d="M159.8,102.08c1.44,0,2.61-1.17,2.61-2.61c0-1.44-1.17-2.61-2.61-2.61H98.38c-1.44,0-2.61,1.17-2.61,2.61
				c0,1.44,1.17,2.61,2.61,2.61"/>
			<path class="st0" d="M98.38,113.15h32.08c2.62-2.31,1.02-5.23-1.26-5.23H98.5c-1.36,0-2.58,1-2.71,2.36
				C95.64,111.83,96.86,113.15,98.38,113.15L98.38,113.15z"/>
			<path class="st0" d="M66.92,130.44c-10.63,0-19.29,8.65-19.29,19.29c0,10.63,8.65,19.28,19.29,19.28s19.29-8.65,19.29-19.28
				C86.21,139.09,77.55,130.44,66.92,130.44z M66.92,163.79c-7.75,0-14.06-6.31-14.06-14.06s6.31-14.06,14.06-14.06
				s14.06,6.31,14.06,14.06C80.98,157.48,74.67,163.79,66.92,163.79z"/>
			<path class="st0" d="M70.59,143.33l-5.8,7.25l-1.75-1.75c-1.02-1.02-2.67-1.02-3.69,0c-1.02,1.02-1.02,2.67,0,3.69l3.81,3.81
				c1.1,1.1,2.92,1,3.89-0.22l7.62-9.53c0.9-1.13,0.72-2.77-0.41-3.67C73.14,142.02,71.5,142.21,70.59,143.33L70.59,143.33z"/>
			<path class="st0" d="M159.8,136.05H98.38c-1.44,0-2.61,1.17-2.61,2.61c0,1.44,1.17,2.61,2.61,2.61h61.41
				c1.44,0,2.61-1.17,2.61-2.61C162.41,137.22,161.24,136.05,159.8,136.05z"/>
			<path class="st0" d="M159.8,147.12H98.38c-1.44,0-2.61,1.17-2.61,2.61c0,1.44,1.17,2.61,2.61,2.61h61.41
				c1.44,0,2.61-1.17,2.61-2.61C162.41,148.29,161.24,147.12,159.8,147.12z"/>
			<path class="st0" d="M98.38,163.41h30.82c1.44,0,2.61-1.17,2.61-2.61c0-1.44-1.17-2.61-2.61-2.61H98.38
				c-1.44,0-2.61,1.17-2.61,2.61C95.77,162.24,96.94,163.41,98.38,163.41L98.38,163.41z"/>
			<path class="st0" d="M66.92,180.71c-10.63,0-19.29,8.65-19.29,19.29c0,10.63,8.65,19.29,19.29,19.29s19.29-8.65,19.29-19.29
				C86.21,189.36,77.55,180.71,66.92,180.71z M66.92,214.05c-7.75,0-14.06-6.31-14.06-14.06c0-7.75,6.31-14.06,14.06-14.06
				s14.06,6.31,14.06,14.06C80.98,207.75,74.67,214.05,66.92,214.05z"/>
			<path class="st0" d="M70.59,193.6l-5.8,7.25l-1.75-1.75c-1.02-1.02-2.67-1.02-3.69,0c-1.02,1.02-1.02,2.67,0,3.69l3.81,3.81
				c1.1,1.1,2.92,1,3.89-0.22l7.62-9.53c0.9-1.13,0.72-2.77-0.41-3.67C73.14,192.29,71.5,192.47,70.59,193.6L70.59,193.6z"/>
			<path class="st0" d="M159.8,186.31H98.38c-1.44,0-2.61,1.17-2.61,2.61c0,1.44,1.17,2.61,2.61,2.61h61.41
				c1.44,0,2.61-1.17,2.61-2.61C162.41,187.48,161.24,186.31,159.8,186.31z"/>
			<path class="st0" d="M159.8,197.38H98.38c-1.44,0-2.61,1.17-2.61,2.61c0,1.44,1.17,2.61,2.61,2.61h61.41
				c1.44,0,2.61-1.17,2.61-2.61C162.41,198.55,161.24,197.38,159.8,197.38z"/>
			<path class="st0" d="M129.21,208.45H98.38c-1.44,0-2.61,1.17-2.61,2.61c0,1.44,1.17,2.61,2.61,2.61h30.82
				c1.44,0,2.61-1.17,2.61-2.61C131.82,209.62,130.65,208.45,129.21,208.45L129.21,208.45z"/>
			<path class="st0" d="M216.05,190.63c-5.26-0.77-10.54,0.38-15,3.2c0.02-3.8,1.14-10.22,7.93-13.68c1.29-0.65,1.8-2.23,1.15-3.51
				c-0.66-1.29-2.24-1.8-3.51-1.14c-8.35,4.25-10.69,12.12-10.81,17.95c-1.76-1.04-3.64-1.81-5.59-2.32V45.82
				c0-5.91-4.8-10.71-10.71-10.71h-31.54c-1.03-3.13-3.94-5.41-7.41-5.41h-18.03c-1.44,0-2.61-1.17-2.61-2.61v-4.1
				c0-8.63-7.39-15.62-16.32-14.8c-7.52,0.72-13.42,7.45-13.42,15.33v3.57c0,1.44-1.17,2.61-2.61,2.61H69.52
				c-3.47,0-6.38,2.28-7.41,5.41H30.55c-5.9,0-10.71,4.8-10.71,10.71v202.43c0,5.91,4.8,10.71,10.71,10.71c0.37,0,156.42,0,156.72,0
				c3.33,0,6.64-1.4,9.8-5.42c0.78-1,2.51-0.99,3.29,0c3.17,4.03,6.48,5.42,9.82,5.42c18.08,0,24.56-42.73,24.62-43.17c0,0,0,0,0,0
				C236.56,203.69,228.14,192.4,216.05,190.63L216.05,190.63z M184.98,45.82v144.6c-2.83-0.05-5.38,0.34-8.27,1.43V56.44
				c0-4.32-3.52-7.84-7.84-7.84h-21.5c0.64-1.73,1-3.6,1-5.55v-2.72h31.12C182.52,40.33,184.98,42.79,184.98,45.82L184.98,45.82z
				 M162.63,215.79c0.03,0.24,1.95,12.85,6.57,24.38c-0.56,0.15,6.02,0.03-128.02,0.07c-1.44,0-2.61-1.17-2.61-2.61V56.44
				c0-1.44,1.17-2.61,2.61-2.61h24.66c2.96,3.3,7.25,5.4,12.03,5.4h54.35c4.78,0,9.06-2.09,12.03-5.4h24.64
				c1.44,0,2.61,1.17,2.61,2.61v138.23C165.11,199.34,161.38,207.29,162.63,215.79L162.63,215.79z M66.91,37.54
				c0-1.44,1.17-2.61,2.61-2.61h18.03c4.32,0,7.84-3.52,7.84-7.84v-3.57c0-5.21,3.81-9.66,8.69-10.12c5.9-0.56,10.6,4.09,10.6,9.6
				v4.1c0,4.32,3.52,7.84,7.84,7.84h18.03c1.44,0,2.61,1.17,2.61,2.61v5.51c0,6.04-4.91,10.95-10.95,10.95H77.85
				c-6.04,0-10.95-4.91-10.95-10.95L66.91,37.54z M25.06,248.24V45.82c0-3.02,2.46-5.49,5.48-5.49h31.13v2.72
				c0,1.95,0.37,3.82,1,5.55H41.17c-4.32,0-7.84,3.52-7.84,7.84v181.18c0,4.32,3.52,7.84,7.84,7.84h127.7c0.87,0,1.69-0.2,2.46-0.47
				c1.63,3.31,3.52,6.35,5.69,8.74H30.55C27.52,253.73,25.06,251.27,25.06,248.24L25.06,248.24z M229.63,215.03
				c-1.87,12.75-9.61,40.22-20.4,38.64c-1.59-0.24-3.2-1.37-4.76-3.36c-2.92-3.71-8.6-3.7-11.51,0c-1.56,1.99-3.17,3.12-4.75,3.36
				c-10.85,1.51-18.54-25.88-20.41-38.64c-2.19-14.86,14.62-24.84,26.64-16.24c2.56,1.83,5.99,1.83,8.55,0
				c3.57-2.56,7.95-3.61,12.3-2.98C224.54,197.16,230.97,205.78,229.63,215.03L229.63,215.03z"/>
		</g>
	</g>
</g>
</svg>
